# xmcd
#
# Track frame offsets: 
#        150
#        14984
#        42991
#        63311
#        80910
#        100666
#        121480
#        136792
#        152572
#        170190
#        186240
#        201151
#
# Disc length: 2839 seconds
#
# Revision: 2
# Processed by: cddbd v1.5.2PL0 Copyright (c) Steve Scherf et al.
# Submitted via: ExactAudioCopy v0.95a4
#
DISCID=ac0b150c
DTITLE=John Mellencamp - Trouble No More
DYEAR=2003
DGENRE=Rock
TTITLE0=Stones In My Passway
TTITLE1=Death Letter
TTITLE2=Johnny Hart
TTITLE3=Baltimore Oriole
TTITLE4=Teardrops Will Fall
TTITLE5=Diamond Joe
TTITLE6=The End Of The World
TTITLE7=Down In The Bottom
TTITLE8=Lafayette
TTITLE9=Joliet Bound
TTITLE10=John The Revelator
TTITLE11=To Washington
EXTD=
EXTT0=
EXTT1=
EXTT2=
EXTT3=
EXTT4=
EXTT5=
EXTT6=
EXTT7=
EXTT8=
EXTT9=
EXTT10=
EXTT11=
PLAYORDER=
